<svg xmlns="http://www.w3.org/2000/svg" viewBox="0 0 231.85 231.9"><path d="M101.71,231.1C7,222.32-35.9,94.88,36,31.49,88.44-21.81,186.26-4.8,218.51,62.2c16.78,32.68,19.39,78.2-1.79,107.3-5.89-2-22.47,1.53-25.81-5.81-5.75-6.74-5.6-7.77-3.1-16.79,3.1-9.7,3.2-29.4.4-40.7a93.47,93.47,0,0,0-18.1-36.5c-3.2-3.9-3.3-4.3-4-16.8s-1.6-15.7-4.8-15.7c-7.63,2.5-17.94,13.75-27.7,8.29-19.9-6-42.8-2.09-59.8,10-4.3,3.1-4.3,3.1-14.4.8-11.91-2.75-11.54-2.43-13.5,3.29,1.91,7.66,7.08,20.62,1.2,29.2-16.72,37.45-6.23,90.56,37,103.1,24.55,7.36,67.5,2.4,82.59-11.9,5.3-4.09,5.3-4.09,6.8-1.69,4,6.3,18.7,16.9,23.5,16.9,2.7,0,1.8,1.6-4.1,7C169.24,224.3,133.49,235,101.71,231.1Z" transform="translate(0 0.02)" style="fill:#ffffff"/><path d="M93.21,140.2c-35.15-5-24.25-37.85-34.39-31-3.91,1.81-4.31,1.81-4,.31.32-2.41,9.61-3.92,8.8-6.9,1.62-3.66-9.75-.14-10-2.2-.34-3.56,11.39-.36,11-4.2,0-1.5-.7-2-2.9-2-5.53.56-12.66-3.09-7.3-3.71a62.11,62.11,0,0,0,6.3,1.21c4.7.6,4.7.6,6.3-4.1,11.36-35,64-44.34,85.7-13.7a61.79,61.79,0,0,1,5,7.2c.93,2.29,15.63-5.66,13.9-1.5-.93,3.24-14.77,2.74-11,8.19-.25.76,12.73-1.35,12,.21,0,1.2-3.4,2.2-7.7,2.2-2.1,0-3.3.5-3.3,1.4,0,2.1,2,3.3,6.8,4.1,3.71,0,6,3.45,2.5,3.1-4.1-.18-8.78-4.84-7.5,3.79C165.81,137.72,118.7,142.91,93.21,140.2Z" transform="translate(0 0.02)" style="fill:#ffffff"/></svg>