<?xml version="1.0" standalone="no"?>
<!DOCTYPE svg PUBLIC "-//W3C//DTD SVG 20010904//EN"
 "http://www.w3.org/TR/2001/REC-SVG-20010904/DTD/svg10.dtd">
<svg version="1.0" xmlns="http://www.w3.org/2000/svg"
 width="500.000000pt" height="500.000000pt" viewBox="0 0 500.000000 500.000000"
 preserveAspectRatio="xMidYMid meet">
<metadata>
Created by potrace 1.14, written by Peter Selinger 2001-2017
</metadata>
<g transform="translate(0.000000,500.000000) scale(0.100000,-0.100000)"
fill="#000000" stroke="none">
<path d="M1617 4994 c-1 -1 -33 -5 -72 -8 -156 -14 -326 -70 -462 -153 -79
-47 -88 -54 -173 -134 -144 -136 -275 -389 -305 -594 -2 -11 -9 -51 -16 -90
-9 -52 -12 -301 -13 -947 l-1 -878 282 0 c219 0 283 3 284 13 0 6 2 386 4 842
3 767 5 868 21 917 3 10 7 30 10 44 9 51 47 149 80 203 75 128 197 212 343
235 301 48 527 -76 625 -346 13 -36 26 -81 30 -99 3 -19 8 -45 11 -59 16 -74
19 -246 19 -963 l1 -787 284 2 284 3 0 333 c0 372 4 409 64 530 101 202 311
308 543 273 191 -29 313 -144 372 -350 33 -116 40 -188 43 -476 2 -159 4 -296
4 -302 1 -10 63 -13 277 -13 l276 0 -5 358 c-2 196 -7 371 -11 387 -6 30 -14
72 -23 128 -8 51 -63 208 -95 271 -63 125 -158 241 -268 329 -62 49 -231 126
-332 151 -182 47 -400 53 -549 18 -89 -22 -227 -73 -263 -98 -11 -7 -23 -14
-27 -14 -3 0 -7 46 -8 103 -1 56 -3 117 -6 135 -10 75 -16 111 -31 187 -12 64
-57 194 -94 270 -150 316 -448 522 -820 571 -50 6 -277 13 -283 8z"/>
<path d="M610 1852 l-36 -3 1 -387 c1 -213 5 -416 9 -452 35 -295 145 -539
324 -717 133 -132 283 -212 507 -270 105 -27 487 -27 590 1 6 1 26 6 45 10
157 35 335 131 456 245 23 23 45 41 49 41 4 0 35 -26 69 -57 95 -88 230 -168
346 -206 144 -47 182 -52 405 -52 173 1 212 4 288 23 393 99 638 365 733 797
26 117 32 247 31 624 l-2 404 -268 -1 c-148 0 -271 -2 -274 -5 -3 -4 -7 -172
-8 -374 -1 -202 -6 -393 -10 -423 -47 -342 -203 -507 -485 -515 -259 -7 -424
143 -495 451 -24 104 -30 205 -30 541 0 280 -2 323 -15 324 -18 0 -385 0 -485
-1 l-70 0 -1 -327 c0 -181 -4 -355 -8 -388 -38 -327 -166 -512 -401 -582 -55
-17 -203 -22 -279 -10 -53 9 -152 46 -188 71 -131 91 -225 270 -253 486 -4 30
-9 204 -11 385 -1 182 -3 339 -3 350 -1 19 -8 20 -248 20 -137 0 -264 -1 -283
-3z"/>
</g>
</svg>
