<svg xmlns="http://www.w3.org/2000/svg" viewBox="0 0 135 40"><path d="M130.2,40H4.73A4.74,4.74,0,0,1,0,35.27V4.73A4.73,4.73,0,0,1,4.73,0H130.2A4.8,4.8,0,0,1,135,4.73V35.27A4.81,4.81,0,0,1,130.2,40Z" transform="translate(0 0)" style="fill:#a6a6a6"/><path d="M134,35.27a3.83,3.83,0,0,1-3.83,3.83H4.73A3.84,3.84,0,0,1,.89,35.27V4.72A3.84,3.84,0,0,1,4.73.89H130.2A3.83,3.83,0,0,1,134,4.72V35.27Z" transform="translate(0 0)"/><path d="M30.13,19.78a5.79,5.79,0,0,1,2.76-4.86,6,6,0,0,0-4.68-2.53c-2-.21-3.87,1.18-4.87,1.18s-2.57-1.16-4.23-1.12a6.22,6.22,0,0,0-5.24,3.19c-2.27,3.92-.58,9.69,1.59,12.86,1.09,1.55,2.36,3.29,4,3.23s2.23-1,4.19-1,2.51,1,4.21,1,2.84-1.56,3.89-3.13a13,13,0,0,0,1.78-3.62A5.61,5.61,0,0,1,30.13,19.78Z" transform="translate(0 0)" style="fill:#fff"/><path d="M26.93,10.31a5.71,5.71,0,0,0,1.3-4.09,5.77,5.77,0,0,0-3.75,1.94,5.4,5.4,0,0,0-1.34,3.94A4.83,4.83,0,0,0,26.93,10.31Z" transform="translate(0 0)" style="fill:#fff"/><path d="M54,17.18H52l-1.1-3.46H47.1l-1.05,3.46h-2L47.88,5.42h2.34Zm-3.43-4.91-1-3.07c-.1-.31-.3-1-.59-2.21h0c-.11.5-.3,1.24-.56,2.21l-1,3.07Z" transform="translate(0 0)" style="fill:#fff"/><path d="M63.74,12.83a4.79,4.79,0,0,1-1.17,3.42A3.44,3.44,0,0,1,60,17.37a2.62,2.62,0,0,1-2.42-1.2v4.45H55.65V11.49c0-.91,0-1.84-.07-2.79h1.65L57.34,10h0a3.35,3.35,0,0,1,5.37-.33A4.66,4.66,0,0,1,63.74,12.83Zm-1.92.07a3.46,3.46,0,0,0-.56-2A1.91,1.91,0,0,0,59.62,10a2,2,0,0,0-1.26.47,2.07,2.07,0,0,0-.74,1.21,2.35,2.35,0,0,0-.09.57v1.42a2.24,2.24,0,0,0,.57,1.56,1.87,1.87,0,0,0,1.47.64,2,2,0,0,0,1.66-.82A3.67,3.67,0,0,0,61.82,12.9Z" transform="translate(0 0)" style="fill:#fff"/><path d="M73.5,12.83a4.76,4.76,0,0,1-1.18,3.42,3.42,3.42,0,0,1-2.61,1.12,2.61,2.61,0,0,1-2.42-1.2v4.45H65.4V11.49c0-.91,0-1.84-.07-2.79H67l.1,1.34h0a3.34,3.34,0,0,1,5.36-.33A4.66,4.66,0,0,1,73.5,12.83Zm-1.92.07a3.53,3.53,0,0,0-.56-2A1.94,1.94,0,0,0,69.38,10a2,2,0,0,0-1.27.47,2.12,2.12,0,0,0-.74,1.21,2.35,2.35,0,0,0-.09.57v1.42a2.24,2.24,0,0,0,.57,1.56,1.87,1.87,0,0,0,1.47.64A1.94,1.94,0,0,0,71,15.07,3.6,3.6,0,0,0,71.58,12.9Z" transform="translate(0 0)" style="fill:#fff"/><path d="M86.76,13.88a3.13,3.13,0,0,1-1.05,2.44,4.59,4.59,0,0,1-3.2,1,5.56,5.56,0,0,1-3-.73l.43-1.57a5.23,5.23,0,0,0,2.72.73,2.56,2.56,0,0,0,1.66-.48,1.55,1.55,0,0,0,.6-1.28,1.64,1.64,0,0,0-.49-1.2,4.54,4.54,0,0,0-1.63-.91q-3.08-1.15-3.08-3.37a3,3,0,0,1,1.09-2.37,4.31,4.31,0,0,1,2.89-.93,5.74,5.74,0,0,1,2.67.56l-.48,1.54a4.69,4.69,0,0,0-2.26-.54A2.31,2.31,0,0,0,82,7.28,1.47,1.47,0,0,0,82.1,9.5a6.07,6.07,0,0,0,1.71.91A5.62,5.62,0,0,1,86,11.84,3,3,0,0,1,86.76,13.88Z" transform="translate(0 0)" style="fill:#fff"/><path d="M93,10.11H90.93v4.12c0,1,.37,1.57,1.1,1.57a3.32,3.32,0,0,0,.84-.09l0,1.43a4.24,4.24,0,0,1-1.47.21,2.23,2.23,0,0,1-1.74-.68,3.31,3.31,0,0,1-.63-2.28V10.11H87.84V8.7h1.24V7.14l1.85-.55V8.7H93v1.41Z" transform="translate(0 0)" style="fill:#fff"/><path d="M102.36,12.87a4.68,4.68,0,0,1-1.12,3.21,4,4,0,0,1-3.1,1.29,3.79,3.79,0,0,1-3-1.24A4.5,4.5,0,0,1,94.05,13,4.58,4.58,0,0,1,95.2,9.78a4,4,0,0,1,3.08-1.26,3.91,3.91,0,0,1,3,1.24A4.48,4.48,0,0,1,102.36,12.87Zm-2,0a3.85,3.85,0,0,0-.5-2,2,2,0,0,0-3.42,0A3.86,3.86,0,0,0,96,13a3.79,3.79,0,0,0,.51,2,1.93,1.93,0,0,0,3.4,0A3.77,3.77,0,0,0,100.4,12.91Z" transform="translate(0 0)" style="fill:#fff"/><path d="M108.48,10.36a2.74,2.74,0,0,0-.59-.06,1.79,1.79,0,0,0-1.54.75,2.87,2.87,0,0,0-.47,1.68v4.45H104V11.37q0-1.47-.06-2.67h1.64l.07,1.62h.06A2.78,2.78,0,0,1,106.65,9,2.23,2.23,0,0,1,108,8.52a3.3,3.3,0,0,1,.47,0v1.8Z" transform="translate(0 0)" style="fill:#fff"/><path d="M116.91,12.54a4.16,4.16,0,0,1-.07.85h-5.65a2.46,2.46,0,0,0,.82,1.92,2.78,2.78,0,0,0,1.85.59,6.13,6.13,0,0,0,2.28-.4l.3,1.31a7.06,7.06,0,0,1-2.84.52,4.09,4.09,0,0,1-3.1-1.16,4.27,4.27,0,0,1-1.13-3.11,4.83,4.83,0,0,1,1-3.19,3.61,3.61,0,0,1,3-1.37,3.15,3.15,0,0,1,2.77,1.37A4.57,4.57,0,0,1,116.91,12.54Zm-1.8-.49a2.63,2.63,0,0,0-.36-1.45,1.66,1.66,0,0,0-1.5-.79,1.79,1.79,0,0,0-1.5.77,2.8,2.8,0,0,0-.56,1.47Z" transform="translate(0 0)" style="fill:#fff"/><path d="M46.31,26.93a21.91,21.91,0,0,0,.47-2.71l1,.13c-.12.83-.28,1.68-.48,2.51.3,0,.57,0,.79,0,1.61,0,2.33.85,2.33,2.6a9.07,9.07,0,0,1-.75,4.1,1.52,1.52,0,0,1-1.51.78,7.74,7.74,0,0,1-1.69-.2l.07-.94a5,5,0,0,0,1.43.22.81.81,0,0,0,.84-.39,7.69,7.69,0,0,0,.62-3.53c0-1.28-.39-1.71-1.39-1.71-.29,0-.61,0-1,0a20.56,20.56,0,0,1-2.57,6l-.89-.48a16.87,16.87,0,0,0,2.45-5.46c-.81.09-1.65.22-2.39.36l-.17-.94C44.35,27.15,45.38,27,46.31,26.93ZM54,31l-1,.25a8.06,8.06,0,0,0-2.14-4.56l.82-.53A9.12,9.12,0,0,1,54,31Z" transform="translate(0 0)" style="fill:#fff"/><path d="M56.76,30.24a7.24,7.24,0,0,1,3.89-1.38c1.81,0,2.91.88,2.91,2.39,0,1.87-1.53,3-5.17,3h-.55l-.21-.95.85,0c2.93,0,4.05-.83,4.05-2.09,0-1-.68-1.57-2.09-1.57a6.39,6.39,0,0,0-3.91,1.81l-.81-.35c0-2.53.27-3.74,1.16-5l.92.31A5.84,5.84,0,0,0,56.76,30.24Zm-.1-5.1.25-.94a35.54,35.54,0,0,1,5.25,1.22l-.27.92A29.63,29.63,0,0,0,56.66,25.14Z" transform="translate(0 0)" style="fill:#fff"/><path d="M68.26,28.19A27.78,27.78,0,0,1,71,30a9.51,9.51,0,0,0,1.43-3.41H68.67a14.4,14.4,0,0,1-3,3.54l-.78-.67a13.13,13.13,0,0,0,3.9-5.24l1,.34a11.91,11.91,0,0,1-.52,1.1H73l.75.41c-.82,3.77-3,6.93-6.45,8.31l-.71-.86a9.21,9.21,0,0,0,3.82-2.69A18.82,18.82,0,0,0,67.63,29Zm4.63-4.36a9.39,9.39,0,0,1,1.23,1.56l-.53.38a7.75,7.75,0,0,0-1.21-1.56Zm1.52-.34a7.86,7.86,0,0,1,1.21,1.59l-.55.36a6.84,6.84,0,0,0-1.18-1.59Z" transform="translate(0 0)" style="fill:#fff"/><path d="M80.43,26.26v-2H81.5v2h3.06l.89.36c-.29,3.57-1.69,6.35-5.44,7.7l-.64-.91a6.5,6.5,0,0,0,4.87-6.18H78v2.69H76.93V26.26Z" transform="translate(0 0)" style="fill:#fff"/><path d="M91.25,27.35l-.69.85a18.53,18.53,0,0,0-3-2.1l.66-.85A26.44,26.44,0,0,1,91.25,27.35Zm4.51,0,.68.8a15.29,15.29,0,0,1-8.09,6l-.52-1A13.93,13.93,0,0,0,95.76,27.37Z" transform="translate(0 0)" style="fill:#fff"/><path d="M106.92,25.72v7.86H98.57V25.72Zm-1.07,6.85V26.7H99.62v5.87Z" transform="translate(0 0)" style="fill:#fff"/><path d="M118.86,28.75v1.08h-9.53V28.75Z" transform="translate(0 0)" style="fill:#fff"/><path d="M128.29,30.43l-.68.86A32,32,0,0,0,123,28.61V34.3h-1.07V24.24H123v3.24A41.82,41.82,0,0,1,128.29,30.43Zm-2.73-4.95A9,9,0,0,1,126.72,27l-.52.33a7.92,7.92,0,0,0-1.12-1.56Zm1.23-.74A10.06,10.06,0,0,1,128,26.28l-.52.33a7.66,7.66,0,0,0-1.13-1.53Z" transform="translate(0 0)" style="fill:#fff"/></svg>