<svg xmlns="http://www.w3.org/2000/svg" viewBox="0 0 437.01 566.93"><path d="M129.08,147.84c0-58.21,23.62-86.9,65-86.9h0c41.34,0,65,28.69,65,86.9V318h64.12V249.72c0-39,29.94-62.23,57.37-62.23,40.49,0,59.05,26.15,59.05,84.36V318H502v-56.3c0-84.37-43.87-132.45-121.48-132.45-20.41,0-40.78,6.35-57.37,15.93h0v-7.5C323.12,55.88,276.71,0,194,0S65,55.93,65,137.71V318h64.12Z" transform="translate(-64.96)" style="fill:#6fc5c6"/><path d="M439.54,356.41v65.41c0,58.21-18.56,84.36-59.05,84.36-34.81,0-57.37-28.17-57.37-88.74v-61H259V417.6c0,59.9-23.62,88.58-65,88.58s-65-28.68-65-88.58V356.44H65v73c0,81.83,46.4,137.51,129.08,137.51,41.41,0,73.72-14,95.66-38.21,20.68,23.26,51.37,38.21,90.79,38.21C458.1,566.93,502,516.31,502,432V356.41Z" transform="translate(-64.96)"/></svg>