<svg xmlns="http://www.w3.org/2000/svg" viewBox="0 0 448 209.61"><path d="M328.21,232.2c0-15.42,6.26-23,17.2-23h0c10.94,0,17.2,7.59,17.2,23v45.07h17V259.18c0-10.34,7.93-16.48,15.19-16.48,10.72,0,15.64,6.92,15.64,22.34v12.23H427V262.36c0-22.34-11.62-35.08-32.17-35.08a31.07,31.07,0,0,0-15.19,4.22h0v-2c0-21.67-12.29-36.47-34.19-36.47s-34.18,14.81-34.18,36.47v47.75h17Z" transform="translate(-197.21 -193.05)" style="fill:#6fc5c6"/><path d="M410.43,287.43v17.32c0,15.42-4.92,22.34-15.64,22.34-9.22,0-15.19-7.46-15.19-23.5V287.44h-17v16.2c0,15.86-6.26,23.45-17.21,23.45s-17.2-7.59-17.2-23.45v-16.2h-17v19.32c0,21.67,12.29,36.42,34.18,36.42,11,0,19.53-3.7,25.34-10.12,5.47,6.16,13.6,10.12,24,10.12,20.55,0,32.17-13.41,32.17-35.75v-20Z" transform="translate(-197.21 -193.05)"/><path d="M345.27,364.3l-9,32.58c-.23.84-.69,1.3-1.35,1.37h0a1.59,1.59,0,0,1-1.52-1.34l-9-31a1.8,1.8,0,0,0-3.42,0L312.39,397c-.23.85-.77,1.37-1.43,1.37s-1.21-.5-1.45-1.35L300,364.33h-3.34L306.1,398a5,5,0,0,0,9.72-.08l6.9-25,7.22,25a5,5,0,0,0,9.73-.07l9-33.42Z" transform="translate(-197.21 -193.05)"/><rect x="89.84" y="159.53" width="3.61" height="49.18"/><rect x="78.05" y="159.53" width="3.61" height="49.18"/><polygon points="229.26 188.47 243.17 170.85 239.36 170.85 225.35 188.75 241.88 208.88 246.24 208.88 229.26 188.47"/><rect x="220.2" y="170.39" width="3.53" height="38.48"/><path d="M548.74,363c14.85,0,16.45,11.89,16.45,17v21.85h-3.45V380c0-6.13-2.25-13.44-13-13.44s-13,7.31-13,13.44v21.85h-3.45V380C532.29,374.92,533.89,363,548.74,363Z" transform="translate(-197.21 -193.05)"/><path d="M213.67,362.64c14.84,0,16.45,12,16.45,17.15v22h-3.45v-22c0-6.18-2.26-13.55-13-13.55s-13,7.37-13,13.55v22h-3.45v-22C197.21,374.63,198.82,362.64,213.67,362.64Z" transform="translate(-197.21 -193.05)" style="fill:#6fc5c6"/><path d="M252.64,402.66c-14.85,0-16.45-12-16.45-17.14v-22h3.45v22c0,6.18,2.25,13.55,13,13.55s13-7.37,13-13.55v-22h3.45v22C269.09,390.67,267.49,402.66,252.64,402.66Z" transform="translate(-197.21 -193.05)"/><path d="M628.76,362.66c-6.64,0-10.61,2.4-13,5.52v-15.6h-3.45v49.29h3.45V379.82c0-6.19,2.26-13.56,13-13.56s13,7.37,13,13.56v22.05h3.45V379.82C645.22,374.66,643.61,362.66,628.76,362.66Z" transform="translate(-197.21 -193.05)"/><path d="M411.41,363.44c-14.85,0-16.46,11.78-16.46,16.85v21.64h3.45V380.29c0-6.07,2.26-13.31,13-13.31Z" transform="translate(-197.21 -193.05)"/><path d="M370.2,363.19a19.5,19.5,0,1,0,19.5,19.5A19.5,19.5,0,0,0,370.2,363.19Zm0,35.77a16.28,16.28,0,1,1,16.27-16.27A16.27,16.27,0,0,1,370.2,399Z" transform="translate(-197.21 -193.05)"/><path d="M482.14,381.91c0,.26,0,.51,0,.78a16.28,16.28,0,0,1-32.55,0c0-.27,0-.52,0-.78h-3.26v.78a19.5,19.5,0,0,0,39,0c0-.27,0-.52,0-.78Z" transform="translate(-197.21 -193.05)"/><path d="M465.91,363.19A19.47,19.47,0,0,0,449.63,372V352.32h-3.22v26.14h3.8a16.25,16.25,0,0,1,31.39,0h3.33A19.48,19.48,0,0,0,465.91,363.19Z" transform="translate(-197.21 -193.05)" style="fill:#6fc5c6"/><path d="M604.06,388.35a16.28,16.28,0,1,1,.25-11.25h3.38a19.47,19.47,0,1,0-.19,11.25Z" transform="translate(-197.21 -193.05)"/><path d="M523.73,388.3a16.26,16.26,0,0,1-31.44-5.85c0-.26,0-.52,0-.78H528a19.39,19.39,0,1,0-.85,6.63Zm-15.17-22.12a16.27,16.27,0,0,1,15.7,12h-31.4A16.27,16.27,0,0,1,508.56,366.18Z" transform="translate(-197.21 -193.05)"/></svg>